<svg xmlns="http://www.w3.org/2000/svg" fill="none" viewBox="0.47119876 8.723478260869566 123.008 35.563043478260866" style="max-height: 500px" width="123.008" height="35.563043478260866">
<path fill="white" d="M9.31 43.475C6.80833 43.475 4.8925 42.7625 3.5625 41.3375C2.26417 39.9125 1.615 37.9017 1.615 35.305V17.445C1.615 14.8483 2.26417 12.8375 3.5625 11.4125C4.8925 9.9875 6.80833 9.275 9.31 9.275C11.8117 9.275 13.7117 9.9875 15.01 11.4125C16.34 12.8375 17.005 14.8483 17.005 17.445V20.96H12.065V17.1125C12.065 15.0542 11.1942 14.025 9.4525 14.025C7.71083 14.025 6.84 15.0542 6.84 17.1125V35.685C6.84 37.7117 7.71083 38.725 9.4525 38.725C11.1942 38.725 12.065 37.7117 12.065 35.685V30.6025H17.005V35.305C17.005 37.9017 16.34 39.9125 15.01 41.3375C13.7117 42.7625 11.8117 43.475 9.31 43.475ZM22.5061 9.75H27.7311V43H22.5061V9.75ZM34.0193 9.75H40.5743L45.6568 29.6525H45.7518V9.75H50.4068V43H45.0393L38.7693 18.7275H38.6743V43H34.0193V9.75Z"/>
<path fill="white" d="M75.6975 9.75H89.52V14.5H80.9225V23.7625H87.6675V28.5125H80.9225V43H75.6975V9.75ZM94.4006 9.75H99.6256V43H94.4006V9.75ZM110.521 25.995L104.774 9.75H110.284L113.799 20.485H113.894L117.504 9.75H122.444L116.696 25.995L122.729 43H117.219L113.419 31.41H113.324L109.429 43H104.489L110.521 25.995Z"/>
<path fill="#E43A3A" d="M70.7295 11.53C70.7295 12.7491 70.7057 13.9138 70.6582 15.0221H59.7568C59.7568 16.241 59.7654 17.4757 59.7812 18.7262C59.8129 19.9612 59.8443 21.2287 59.876 22.527C59.9077 23.5399 60.1687 24.2521 60.6592 24.6637C61.15 25.0595 61.9419 25.2574 63.0342 25.2575C64.1266 25.2575 64.8946 25.0596 65.3379 24.6637C65.7971 24.2521 66.0511 23.5318 66.0986 22.5026C66.1303 22.0277 66.1455 21.4099 66.1455 20.6501C66.1455 19.8902 66.1217 19.0669 66.0742 18.1803H70.6582C70.6899 18.6236 70.7137 19.249 70.7295 20.0563C70.7453 20.8638 70.7377 21.5213 70.7061 22.028C70.5952 24.4505 69.9615 26.1842 68.8057 27.2292C67.6498 28.2741 65.7496 28.7966 63.1055 28.7966C60.3348 28.7965 58.3554 28.2665 57.168 27.2057C55.9805 26.1291 55.3239 24.4029 55.1973 22.028C55.1656 20.9831 55.1342 19.7877 55.1025 18.4421C55.0867 17.0804 55.0781 15.6788 55.0781 14.238C55.0781 12.7813 55.0867 11.3721 55.1025 10.0104C55.1026 10.0068 55.1025 10.0033 55.1025 9.99968H59.7891C59.7842 10.5416 59.7812 11.0837 59.7812 11.6257H66.1455V9.99968H70.7393C70.7383 10.4861 70.7363 10.9962 70.7295 11.53Z"/>
<path fill="#E43A3A" d="M63.3232 33.6979C66.0605 33.6979 68.0326 34.244 69.2383 35.3356C70.4437 36.4109 71.1037 38.146 71.2178 40.5407C71.2341 40.9154 71.2422 41.6086 71.2422 42.6188C71.2442 42.7438 71.2436 42.8707 71.2451 42.9997H66.5322C66.5378 42.4291 66.5373 41.9106 66.5254 41.445C66.5091 40.7935 66.4929 40.3375 66.4766 40.0768C66.4114 39.0506 66.1341 38.3338 65.6455 37.9264C65.1567 37.5191 64.3823 37.3151 63.3232 37.3151C62.134 37.3152 61.3035 37.5435 60.8311 37.9997C60.3586 38.4396 60.1058 39.1318 60.0732 40.0768C60.0575 41.0359 60.0338 42.0102 60.0029 42.9997H55.1992C55.22 42.1761 55.238 41.4218 55.2588 40.737C55.4054 38.1953 56.1058 36.3866 57.3604 35.3112C58.6312 34.2359 60.6188 33.698 63.3232 33.6979Z"/>
</svg>