<svg width="80" height="80" viewBox="0 0 80 80" fill="none" xmlns="http://www.w3.org/2000/svg">
<rect width="80" height="80" rx="6.25" fill="#5FC3B4"/>
<path d="M66.5685 17.5046C66.588 18.8186 66.5876 20.2946 66.5666 21.9323C66.5666 23.61 66.5333 25.2118 66.468 26.737H51.466C51.466 28.4147 51.4774 30.1144 51.4992 31.8356C51.5428 33.5351 51.5865 35.2786 51.6301 37.0651C51.6737 38.4594 52.0328 39.4401 52.7082 40.0065C53.3836 40.5513 54.4733 40.8229 55.9767 40.823C57.4798 40.823 58.5365 40.551 59.1467 40.0065C59.7785 39.44 60.1272 38.4482 60.1926 37.0319C60.2361 36.3784 60.258 35.5288 60.258 34.4831C60.258 33.4373 60.2257 32.3038 60.1603 31.0837H66.468C66.5115 31.6938 66.5448 32.5545 66.5666 33.6657C66.5884 34.7769 66.577 35.6814 66.5334 36.3786C66.3808 39.712 65.5095 42.0978 63.9191 43.5358C62.3285 44.9739 59.7132 45.6931 56.0744 45.6931C52.2616 45.693 49.5376 44.9634 47.9035 43.5036C46.2694 42.022 45.3659 39.6467 45.1916 36.3786C45.148 34.9405 45.1043 33.2951 45.0607 31.4431C45.0389 29.5692 45.0275 27.6407 45.0275 25.6579C45.0275 23.6534 45.0389 21.7143 45.0607 19.8405C45.0796 19.0189 45.0995 18.2402 45.1183 17.5046H51.5461C51.541 17.6728 51.5368 17.8416 51.5314 18.0105C51.5096 19.3613 51.4992 20.7124 51.4992 22.0632H60.258V18.7292C60.2664 18.3016 60.2707 17.8934 60.2726 17.5046H66.5685Z" fill="#191919"/>
<path d="M56.3745 51.0622C60.1411 51.0622 62.8539 51.813 64.5132 53.3151C66.1724 54.7949 67.0808 57.1832 67.2378 60.4792C67.2578 60.9412 67.2679 61.754 67.27 62.9176H60.7964C60.795 62.495 60.7903 62.0968 60.7807 61.7233C60.7583 60.8269 60.7358 60.1993 60.7133 59.8405C60.6237 58.4281 60.2423 57.4411 59.5698 56.8805C58.8971 56.32 57.8319 56.0397 56.3745 56.0397C54.7377 56.0397 53.594 56.3533 52.9438 56.9811C52.2936 57.5865 51.9467 58.54 51.9018 59.8405C51.8852 60.8539 51.8595 61.8796 51.8305 62.9176H45.2153C45.2357 62.1456 45.2554 61.422 45.2758 60.7477C45.4777 57.2501 46.442 54.7617 48.1684 53.2819C49.9173 51.8021 52.6525 51.0622 56.3745 51.0622Z" fill="#191919"/>
<path d="M19.3024 30.5258H22.2807V33.189C22.2807 36.3963 20.677 38.2291 17.5842 38.2291C14.4914 38.2291 12.8877 36.3963 12.8877 33.189V22.7651C12.8877 19.5578 14.4914 17.725 17.5842 17.725C20.677 17.725 22.2807 19.5578 22.2807 22.7651V24.7125H19.3024V22.5647C19.3024 21.1328 18.6724 20.5887 17.6701 20.5887C16.6678 20.5887 16.0378 21.1328 16.0378 22.5647V33.3894C16.0378 34.8213 16.6678 35.3368 17.6701 35.3368C18.6724 35.3368 19.3024 34.8213 19.3024 33.3894V30.5258ZM25.6238 38V17.9541H28.7739V38H25.6238ZM39.2387 38L35.3727 23.4811H35.3154V38H32.4803V17.9541H36.4322L39.6109 29.953H39.6682V17.9541H42.4746V38H39.2387Z" fill="white"/>
<path d="M16.4183 45.0975V51.3126H20.6009V54.2581H16.4183V62.7706H13.1782V42.152H21.7497V45.0975H16.4183ZM24.7762 62.7706V42.152H28.0162V62.7706H24.7762ZM39.6637 42.152H42.6681L39.2808 52.1668L42.9038 62.7706H39.487L36.8654 54.6116H36.8065L34.1556 62.7706H31.1217L34.7447 52.1668L31.3573 42.152H34.7152L37.1305 49.7515H37.1895L39.6637 42.152Z" fill="white"/>
</svg>
