<svg xmlns="http://www.w3.org/2000/svg" fill="none" viewBox="1.5734375 8.7 122.875 35.875" style="max-height: 500px" width="122.875" height="35.875">
<path fill="white" d="M10.2267 43.475C7.72499 43.475 5.80916 42.7625 4.47916 41.3375C3.18082 39.9125 2.53166 37.9017 2.53166 35.305V17.445C2.53166 14.8483 3.18082 12.8375 4.47916 11.4125C5.80916 9.98749 7.72499 9.27499 10.2267 9.27499C12.7283 9.27499 14.6283 9.98749 15.9267 11.4125C17.2567 12.8375 17.9217 14.8483 17.9217 17.445V20.96H12.9817V17.1125C12.9817 15.0542 12.1108 14.025 10.3692 14.025C8.62749 14.025 7.75666 15.0542 7.75666 17.1125V35.685C7.75666 37.7117 8.62749 38.725 10.3692 38.725C12.1108 38.725 12.9817 37.7117 12.9817 35.685V30.6025H17.9217V35.305C17.9217 37.9017 17.2567 39.9125 15.9267 41.3375C14.6283 42.7625 12.7283 43.475 10.2267 43.475ZM23.4228 9.74999H28.6478V43H23.4228V9.74999ZM34.9359 9.74999H41.4909L46.5734 29.6525H46.6684V9.74999H51.3234V43H45.9559L39.6859 18.7275H39.5909V43H34.9359V9.74999Z"/>
<path fill="white" d="M76.6142 9.74999H90.4367V14.5H81.8392V23.7625H88.5842V28.5125H81.8392V43H76.6142V9.74999ZM95.3173 9.74999H100.542V43H95.3173V9.74999ZM111.438 25.995L105.69 9.74999H111.2L114.715 20.485H114.81L118.42 9.74999H123.36L117.613 25.995L123.645 43H118.135L114.335 31.41H114.24L110.345 43H105.405L111.438 25.995Z"/>
<path fill="#5FC3B4" d="M71.6461 11.5299C71.6461 12.7491 71.6224 13.9138 71.5749 15.0221H60.6735C60.6735 16.241 60.6821 17.4757 60.6979 18.7262C60.7296 19.9612 60.761 21.2287 60.7926 22.527C60.8243 23.5398 61.0854 24.2521 61.5758 24.6637C62.0666 25.0595 62.8586 25.2574 63.9508 25.2575C65.0433 25.2575 65.8112 25.0595 66.2545 24.6637C66.7137 24.2521 66.9678 23.5318 67.0153 22.5026C67.0469 22.0276 67.0622 21.4099 67.0622 20.6501C67.0622 19.8902 67.0384 19.0669 66.9909 18.1803H71.5749C71.6065 18.6236 71.6303 19.249 71.6461 20.0563C71.662 20.8638 71.6544 21.5213 71.6227 22.028C71.5119 24.4505 70.8781 26.1842 69.7223 27.2292C68.5665 28.2741 66.6662 28.7965 64.0221 28.7965C61.2515 28.7965 59.2721 28.2665 58.0846 27.2057C56.8972 26.1291 56.2406 24.4029 56.1139 22.028C56.0823 20.9831 56.0509 19.7877 56.0192 18.4421C56.0034 17.0804 55.9948 15.6788 55.9948 14.238C55.9948 12.7813 56.0034 11.3721 56.0192 10.0104C56.0193 10.0068 56.0191 10.0032 56.0192 9.99967H60.7057C60.7009 10.5416 60.6979 11.0837 60.6979 11.6256H67.0622V9.99967H71.6559C71.655 10.4861 71.653 10.9962 71.6461 11.5299Z"/>
<path fill="#5FC3B4" d="M64.2399 33.6979C66.9771 33.6979 68.9492 34.244 70.1549 35.3356C71.3604 36.4109 72.0203 38.146 72.1344 40.5407C72.1507 40.9154 72.1588 41.6086 72.1588 42.6188C72.1609 42.7438 72.1603 42.8707 72.1618 42.9997H67.4489C67.4544 42.4291 67.454 41.9106 67.442 41.445C67.4258 40.7935 67.4095 40.3375 67.3932 40.0768C67.3281 39.0505 67.0508 38.3338 66.5622 37.9264C66.0734 37.5191 65.299 37.3151 64.2399 37.3151C63.0507 37.3151 62.2202 37.5435 61.7477 37.9997C61.2752 38.4396 61.0225 39.1318 60.9899 40.0768C60.9742 41.0359 60.9505 42.0102 60.9196 42.9997H56.1159C56.1366 42.1761 56.1547 41.4218 56.1754 40.737C56.3221 38.1953 57.0225 36.3865 58.277 35.3112C59.5478 34.2359 61.5354 33.698 64.2399 33.6979Z"/>
</svg>