<svg width="144" height="60" viewBox="0 0 144 60" fill="none" xmlns="http://www.w3.org/2000/svg">
<path d="M123.75 26.2499C120.75 26.2499 118.5 26.2499 115.875 26.2499C115.125 26.2499 114 28.8749 115.125 28.8749C116.502 28.8749 117.285 28.8599 119.625 28.8749C119.91 28.8779 121.125 28.8749 121.125 30.3749C121.125 31.2299 120.75 32.2499 118.875 32.2499C117.75 32.2499 117 32.2499 113.625 32.2499C112.5 32.2499 111.75 35.2499 111.75 36.3749C111.75 37.1249 112.125 37.1249 112.5 37.1249C113.274 37.1249 118.881 35.1269 120 35.2499C120.891 35.3489 121.5 36.0719 121.5 37.1249C121.5 38.9999 115.212 41.9879 111.375 41.9879C109.875 41.9879 107.25 40.9289 107.25 37.8749C107.25 35.6249 108.75 32.6249 108.75 31.8749C108.75 31.1249 108.375 31.1249 108.375 30.3749C108.375 29.6249 108.75 28.8749 110.25 28.8749C110.625 28.8749 111 27.7499 111.375 25.8749C111.522 25.1339 110.625 25.4999 109.125 24.7499C107.775 24.0749 108.012 22.7789 108.75 22.4429C109.554 22.0799 117.381 21.9059 121.683 21.6719C122.748 21.6149 123.936 21.6329 124.875 24.7499C125.112 25.5389 124.5 26.2499 123.75 26.2499Z" fill="white"/>
<path d="M100.875 41.6249C98.4449 41.6249 96.7499 37.4999 95.2499 33.3749C94.2749 30.6899 94.1249 29.9999 93.7499 29.9999C93.3749 29.9999 92.9999 31.4999 92.9999 34.1249C92.9999 41.2499 91.8749 41.9999 90.7499 41.9999C89.2499 41.9999 88.8749 39.3119 88.8749 37.4999C88.8749 27.7499 91.8749 23.25 92.9999 23.25C93.5489 23.25 94.2749 23.502 94.8749 24.3749C98.9999 30.3749 100.125 35.9999 100.875 35.9999C101.25 35.9999 101.625 34.8749 101.625 33.3749C101.625 26.6249 100.125 23.9999 99.3749 20.625C99.1949 19.812 99.8069 19.398 100.5 19.875C102.297 21.111 105.75 24.7499 105.75 31.8749C105.75 38.9999 103.161 41.6249 100.875 41.6249Z" fill="white"/>
<path d="M86.9999 24.7499C86.9999 25.8749 86.2499 26.6249 84.7499 26.6249C82.4999 26.6249 80.6249 25.8749 77.2499 25.8749C71.25 25.8749 71.25 26.6249 71.25 27.3749C71.25 28.5029 77.2499 28.1249 80.9999 28.8749C84.7499 29.6249 87.3749 30.7499 87.3749 34.8749C87.3329 37.5689 85.8749 41.9999 77.9999 41.9999C72.375 41.9999 67.875 39.3749 67.875 35.9999C67.875 34.8329 68.25 32.2499 72.75 32.2499C76.1249 32.2499 81.7499 33.7499 81.7499 34.8749C81.7499 35.9999 80.3309 36.7499 77.9999 36.7499C75 36.7499 73.125 34.4999 70.875 34.4999C70.125 34.4999 69.75 34.8749 69.75 35.6249C69.75 37.8749 75.375 38.6249 77.9999 38.6249C80.4029 38.6249 83.9999 37.8749 83.9999 35.2499C83.9999 33.7499 82.8749 32.2499 76.4999 31.4999C74.949 31.3169 67.875 31.4999 67.875 27.3749C67.875 23.9999 70.935 21.7499 77.9999 21.7499C85.0649 21.7499 86.9999 23.2499 86.9999 24.7499Z" fill="white"/>
<path d="M63.75 42C62.958 42 62.178 41.655 61.851 41.202C61.284 40.497 61.068 40.152 61.125 34.125C61.266 29.655 61.5 22.5 63.375 22.5C64.875 22.5 66 24.375 66 35.25C66 42 65.625 42 63.75 42Z" fill="white"/>
<path d="M72.375 5.62496C72.375 5.62496 72 3.01196 67.761 3.01196C60 3.01196 57 8.99996 57 10.875C57 13.875 58.125 14.625 58.5 15.375C58.875 16.125 58.5 16.875 58.5 17.625C58.5 18.375 58.875 18.75 59.625 18.75C60.375 18.75 60.468 18.093 60.75 17.625C61.032 17.157 61.5 16.875 61.5 16.875C61.5 16.875 62.25 18 66.75 18C72.156 18 77.9999 13.275 77.9999 9.74996C77.9999 4.87496 72.399 5.64296 72.375 5.62496ZM60 13.125C59.625 12.375 60.375 7.12496 66.375 6.74996C64.5 7.87496 62.25 9.37496 60 13.125ZM62.853 14.52C64.875 10.125 69.369 7.73996 71.403 7.73996C73.122 7.73996 73.872 8.62496 73.872 9.74996C73.875 12 68.625 16.125 62.853 14.52Z" fill="white"/>
<path d="M140.25 23.25C136.125 23.25 130.875 30 128.625 35.625C127.125 33.375 128.25 30.375 129.375 28.5C130.26 27.024 132.75 24.375 132.75 22.5C132.75 22.125 132.75 21.375 132 21.375C131.25 21.375 130.578 21.819 129.57 22.875C125.625 27 123.375 30.957 123.375 34.125C123.375 38.625 125.25 39.75 126.75 40.5C125.25 44.25 123.75 51.375 123.75 56.25C123.75 57.7499 125.25 59.9999 127.875 59.9999C129.108 59.9999 129.375 59.6249 129.375 58.1249C129.375 48.75 131.625 42 131.625 42C135 42 144 38.973 144 28.5C144 24.465 142.125 23.25 140.25 23.25ZM138.153 35.043C137.457 35.682 135.375 37.125 133.5 37.5C134.25 34.875 136.5 31.125 138.75 28.5C140.13 26.889 140.643 27 141 27C141.612 27 141.762 27.75 141.762 28.125C141.762 31.5 139.242 34.044 138.153 35.043Z" fill="white"/>
<path d="M12.75 -3.05176e-05C4.125 -3.05176e-05 0 1.81197 0 4.12497C0 5.23497 0.75 7.12496 3.75 7.12496C3.75 7.12496 5.25 7.12496 5.25 5.99997C5.25 5.24997 4.419 5.24997 3.75 5.24997C3 5.24997 3 4.87497 3 4.87497C3 4.12497 4.5 3.37497 12.75 3.37497C31.125 3.37497 52.125 19.548 52.125 30.375C52.125 40.1249 40.803 40.8749 36.375 40.8749C31.875 40.8749 28.125 40.1249 28.125 40.1249C28.125 40.1249 28.125 30.654 28.125 27C37.125 27 41.523 28.275 41.523 30.0749C41.523 31.8749 39 31.1249 39 31.8749C39 32.6249 40.584 33.0839 41.625 32.9999C42.666 32.9159 45 32.5589 45 29.625C45 26.625 42.75 22.125 28.125 22.125C28.125 22.125 28.125 17.625 28.125 16.875C28.125 16.125 27.75 12 25.5 12C23.25 12 22.875 15.861 22.875 16.875C22.875 19.5 22.842 22.125 22.842 22.125C17.625 22.5 8.99999 24.375 8.99999 30C8.99999 35.2499 16.875 39.3749 22.875 42.3749C22.875 44.2499 22.875 44.2499 22.875 45.3749C22.875 46.4999 23.625 47.9999 25.5 47.9999C27.75 47.9999 28.125 46.1249 28.125 43.8749C28.125 43.8749 31.875 44.9999 36.75 44.9999C53.625 44.9999 58.5 36.3749 58.5 30C58.5 15.75 37.875 -3.05176e-05 12.75 -3.05176e-05ZM22.875 38.2499C22.875 38.2499 11.25 33.3749 11.25 30C11.25 27 20.25 27 22.875 27V38.2499Z" fill="white"/>
</svg>
