<svg width="100" height="41" viewBox="0 0 100 41" fill="none" xmlns="http://www.w3.org/2000/svg">
<path fill-rule="evenodd" clip-rule="evenodd" d="M29 41H18.1789V25.4802H11.1545V41H0V1H11.1545V15.8796H18.1789V1H29V41Z" fill="white"/>
<path fill-rule="evenodd" clip-rule="evenodd" d="M79.6407 28.4481C84.0704 28.4481 87.6615 24.8532 87.6615 20.4174C87.6615 15.9828 84.0704 12.3873 79.6407 12.3873C75.2104 12.3873 71.6196 15.9828 71.6196 20.4174C71.6196 24.8532 75.2104 28.4481 79.6407 28.4481ZM69.4374 20.4174C69.4374 14.7761 74.0053 10.2024 79.6407 10.2024C85.2758 10.2024 89.8445 14.7761 89.8445 20.4174C89.8445 26.0597 85.2758 30.6332 79.6407 30.6332C74.0053 30.6332 69.4374 26.0597 69.4374 20.4174ZM55.2298 20.4174C56.4924 20.2573 58.597 18.8121 59.3384 17.8896C59.0778 19.0335 59.0579 22.344 59.3625 23.4878C58.5162 22.1835 56.5127 20.5781 55.2298 20.4174ZM47.8945 9.6028C49.4979 9.6028 50.7607 11.1875 50.7607 12.9936C50.7607 14.7996 49.4979 16.3853 47.8945 16.3853H42.3833V9.6028H47.8945ZM47.8744 24.6714C49.4776 24.6714 50.7405 26.2569 50.7405 28.0624C50.7405 29.8686 49.4776 31.4535 47.8744 31.4535H42.3631V24.6714H47.8744ZM79.634 41C90.8639 40.9956 100.003 31.6541 100 20.4095C99.9978 8.92773 90.8639 0.00850959 79.634 5.94324e-06C68.4171 -0.00809056 62.6858 8.25839 61.2697 11.595C61.2829 6.58612 56.3518 0.673899 50.5838 0.667575H32V40.8002L49.3264 40.8036C56.3119 40.8036 61.2827 34.7435 61.2912 29.5471C62.8857 32.8175 68.4171 41.004 79.634 41Z" fill="white"/>
</svg>
