<svg width="144" height="60" viewBox="0 0 144 60" fill="none" xmlns="http://www.w3.org/2000/svg">
<path d="M144 0H0V60H144V0Z" fill="#D32F2F"/>
<path d="M121.149 14.748V6.00301H96.816L92.814 35.214L88.854 6.00301H80.079L81.063 13.797C80.049 11.799 76.458 6.00301 68.55 6.00301C68.499 6.00001 59.763 6.00301 59.763 6.00301L59.73 48.582L53.334 6.00301L41.841 5.99701L35.226 50.115L35.229 6.00301H24.234L20.268 30.783L16.407 6.00301H5.40601V53.967H14.07V30.849L18.012 53.967H22.617L26.502 30.849V53.967H43.203L44.217 46.587H50.94L51.951 53.967L68.349 53.976H68.361V53.967H68.37H68.379V38.4L70.389 38.106L74.55 53.979H74.559H83.019H83.028L83.025 53.97H83.04H83.049L77.589 35.367C80.358 33.321 83.481 28.122 82.65 23.148C82.659 23.214 87.804 54 87.804 54L97.89 53.97L104.784 10.494V53.97H121.14V45.345H113.376V34.344H121.14V25.587H113.376V14.751L121.149 14.748ZM45.237 38.982L47.616 18.477L50.085 38.982H45.237ZM70.422 29.514C69.756 29.838 69.06 30 68.382 30V14.571C68.394 14.571 68.406 14.568 68.424 14.568C69.102 14.565 74.16 14.772 74.16 22.2C74.16 26.085 72.441 28.533 70.422 29.514Z" fill="#FAFAFA"/>
<path d="M138.603 45.336H131.238V5.99701H122.649V53.961H138.603V45.336Z" fill="#FAFAFA"/>
</svg>
