<svg width="197" height="58" viewBox="0 0 197 58" fill="none" xmlns="http://www.w3.org/2000/svg">
<path fill-rule="evenodd" clip-rule="evenodd" d="M0 0H40.3815V57.8604H0V0ZM5.82033 52.0356H34.541V5.82706H5.82033V52.0356Z" fill="#F7D730"/>
<path fill-rule="evenodd" clip-rule="evenodd" d="M67.205 25.9596H64.7072C61.4261 21.3248 58.172 16.7192 54.9222 11.5141H54.8987V25.9596H52.1376V5.81814H54.6376C57.9187 10.4204 61.1684 14.9935 64.3879 20.1717H64.445V5.81814H67.2061L67.205 25.9596ZM73.7683 17.9877C74.5695 15.3398 75.3763 12.8947 76.0969 9.78615H76.1551C76.9597 12.8947 77.6803 15.3409 78.4277 17.9877H73.7683ZM75.0883 5.81814L68.1295 25.9596H71.1215L72.8718 20.462H78.9465L80.5277 25.9596H84.3859L77.9671 5.81814H75.0883ZM87.6344 25.9596V8.51988H82.3386V5.81814H96.3784V8.51988H91.087V25.9596H87.6344ZM97.4979 5.81814H100.927V25.9596H97.4979V5.81814ZM111.572 23.4237C107.972 23.4237 106.707 19.4535 106.707 15.5975C106.707 11.8873 108.145 8.34731 111.572 8.34731C114.996 8.34731 116.429 11.8873 116.429 15.5975C116.429 19.4535 115.166 23.4237 111.572 23.4237ZM111.572 26.3002C116.836 26.3002 120.115 21.6128 120.115 15.5964C120.115 9.95871 116.495 5.47076 111.572 5.47076C106.654 5.47076 103.019 9.95871 103.019 15.5964C103.02 21.6139 106.305 26.3002 111.572 26.3002ZM137.291 25.9596H134.79C131.507 21.3248 128.255 16.7192 125.007 11.5141H124.979V25.9596H122.221V5.81814H124.723C127.999 10.4204 131.251 14.9935 134.468 20.1717H134.528V5.81814H137.292V25.9596H137.291ZM143.851 17.9877C144.659 15.3398 145.46 12.8947 146.184 9.78615H146.241C147.047 12.8947 147.764 15.3409 148.51 17.9877H143.851ZM145.178 5.81814L138.216 25.9596H141.21L142.96 20.462H149.034L150.616 25.9596H154.47L148.052 5.81814H145.178ZM155.473 5.81814H158.903V23.2534H165.718V25.9596H155.473V5.81814ZM65.0826 42.8065V51.119C63.2393 51.8418 61.3107 52.3561 59.3598 52.3561C53.4307 52.3561 49.6913 47.7528 49.6913 41.8249C49.6913 36.3273 53.4307 31.5244 59.473 31.5244C61.3399 31.5244 63.2112 32.2181 64.3632 33.0798L63.2404 35.4678C62.3215 34.8974 60.8793 34.4077 59.5581 34.4077C55.8781 34.4077 53.3725 37.3145 53.3725 41.8899C53.3725 46.6624 56.2513 49.4796 59.2152 49.4796C60.1319 49.4796 60.9129 49.3698 61.6357 48.9921V42.8065H65.0826ZM77.4315 34.5803H71.6706V40.1014H77.3094V42.8065H71.6706V49.3048H78.4602V52.0133H68.2158V31.8707H77.4315V34.5803ZM88.076 49.4785C84.4755 49.4785 83.2081 45.5116 83.2081 41.6534C83.2081 37.9454 84.647 34.4066 88.076 34.4066C91.4971 34.4066 92.9326 37.9454 92.9326 41.6534C92.9326 45.5116 91.6641 49.4785 88.076 49.4785ZM88.076 52.3561C93.3382 52.3561 96.616 47.6665 96.616 41.6523C96.616 36.0146 92.9931 31.5233 88.076 31.5233C83.1499 31.5233 79.5292 36.0146 79.5292 41.6523C79.5281 47.6676 82.8025 52.3561 88.076 52.3561ZM113.186 42.8065V51.119C111.343 51.8418 109.42 52.3561 107.461 52.3561C101.536 52.3561 97.7937 47.7528 97.7937 41.8249C97.7937 36.3273 101.536 31.5244 107.579 31.5244C109.45 31.5244 111.317 32.2181 112.466 33.0798L111.343 35.4678C110.422 34.8974 108.992 34.4077 107.666 34.4077C103.978 34.4077 101.475 37.3145 101.475 41.8899C101.475 46.6624 104.355 49.4796 107.319 49.4796C108.242 49.4796 109.015 49.3698 109.737 48.9921V42.8065H113.186ZM119.811 34.5803H121.332C123.369 34.5803 124.523 35.7546 124.523 37.8289C124.523 40.5306 122.886 41.7375 121.244 41.8238C120.898 41.8585 120.091 41.8876 119.811 41.9123V34.5803ZM128.555 52.0133L124.491 43.6727C126.706 42.4961 127.979 40.1014 127.979 37.6843C127.979 33.7678 125.587 31.8707 121.731 31.8707H116.351V52.0133H119.811V44.4179H121.363L124.608 52.0133H128.555ZM134.25 44.0425C135.053 41.3912 135.859 38.9483 136.581 35.8409H136.638C137.443 38.9483 138.161 41.3912 138.909 44.0425H134.25ZM135.571 31.8707L128.606 52.0133H131.598L133.356 46.5156H139.429L141.002 52.0133H144.865L138.445 31.8707H135.571ZM151.336 31.8707H145.957V52.0133H149.41V44.4179H150.96C155.077 44.4179 157.583 41.0797 157.583 37.6843C157.583 33.7667 155.192 31.8707 151.336 31.8707ZM150.852 41.8249C150.494 41.8574 149.651 41.8843 149.41 41.9078V34.5803H150.96C152.974 34.5803 154.129 35.7546 154.129 37.8289C154.129 40.5306 152.494 41.7386 150.852 41.8249ZM173.577 52.0133H170.125V42.3202H162.956V52.0133H159.541V31.8707H162.956V39.6106H170.125V31.9278H173.577V52.0133ZM176.883 31.8707H180.314V52.0133H176.883V31.8707ZM195.844 35.5272C195.008 35.0083 193.633 34.4066 192.303 34.4066C188.788 34.4066 186.236 37.3134 186.236 41.8887C186.236 46.6613 189.053 49.4785 192.393 49.4785C193.615 49.4727 194.811 49.1232 195.844 48.47L196.796 50.9756C195.754 51.6939 193.919 52.3561 192.253 52.3561C186.323 52.3561 182.581 47.7528 182.581 41.8249C182.581 36.3273 186.291 31.5244 192.303 31.5244C194.091 31.5244 195.754 32.2775 196.941 33.0798L195.844 35.5272Z" fill="white"/>
</svg>
