<svg width="179" height="56" viewBox="0 0 179 56" fill="none" xmlns="http://www.w3.org/2000/svg">
<path d="M11.481 17C5.148 17 0 22.148 0 28.481V55.037H5.444V40.297L7.444 42.407L15.444 39.26C20 37.482 22.963 33.37 22.963 28.482C22.963 22.149 17.815 17 11.481 17ZM13.519 34.445L5.445 37.593V28.482C5.445 24.815 8.186 22.186 11.482 22.186C14.778 22.186 17.519 24.852 17.519 28.482C17.519 30.778 16.408 33.297 13.519 34.445ZM107.556 17C101.223 17 96.075 22.148 96.075 28.481C96.075 34.814 101.223 39.962 107.556 39.962C113.889 39.962 119.037 34.814 119.037 28.481C119.037 22.148 113.889 17 107.556 17ZM107.556 34.778C104.075 34.778 101.519 32.001 101.519 28.482C101.519 24.963 104.149 22.186 107.556 22.186C111.037 22.186 113.593 24.963 113.593 28.482C113.593 32.001 111.037 34.778 107.556 34.778ZM132.408 22.186C134.777 22.186 136.703 23.482 137.704 25.408L141.963 22.149C139.889 19.075 136.408 17.038 132.408 17.038C126.074 17.038 120.926 22.186 120.926 28.519C120.926 34.852 126.074 40 132.408 40C136.371 40 139.888 37.963 141.963 34.889L137.704 31.629C136.703 33.556 134.777 34.852 132.408 34.852C128.926 34.852 126.371 32.075 126.371 28.556C126.371 25.037 129 22.186 132.408 22.186ZM85.963 22.186C88.334 22.186 90.26 23.482 91.26 25.408L95.519 22.149C93.445 19.075 89.963 17.038 85.963 17.038C79.63 17.038 74.482 22.186 74.482 28.519C74.482 34.852 79.63 40 85.963 40C89.926 40 93.445 37.963 95.519 34.889L91.26 31.629C90.26 33.556 88.334 34.852 85.963 34.852C82.482 34.852 79.926 32.075 79.926 28.556C79.926 25.037 82.519 22.186 85.963 22.186ZM66.926 19.741C65.074 17.815 62.63 17.001 60.074 17.001C54.74 17.001 49.334 21.853 49.334 28.482C49.334 35.111 54.74 39.963 60.074 39.963C62.63 39.963 65.074 39.149 66.926 37.223V39.297H72.371V17.703H66.926V19.741ZM60.889 34.778C57.409 34.778 54.778 32.001 54.778 28.482C54.778 24.963 57.482 22.186 60.889 22.186C64.371 22.186 66.926 24.963 66.926 28.482C66.926 32.001 64.371 34.778 60.889 34.778ZM157.111 27.704H154.667L164.111 17.667H157.111L149.481 25.89V5.89001H144.037V39.298H149.481V33.15L152.481 29.964L158.888 39.298H165.481L157.111 27.704ZM36.222 17C29.889 17 24.741 22.148 24.741 28.481C24.741 34.814 29.889 39.962 36.222 39.962C40 39.962 43.555 38.148 45.593 35.333L41.222 32.296C40.703 33.148 39.037 34.776 36.222 34.776C33.63 34.776 31.518 33.221 30.63 30.962H47.186C47.372 30.148 47.446 29.333 47.446 28.481C47.481 22.149 42.556 17 36.222 17ZM30.667 26C31.556 23.74 33.667 22.186 36.222 22.186C38.815 22.186 40.778 23.741 41.593 26H30.667Z" fill="white"/>
<path d="M175.371 36.038C173.556 36.038 172.074 37.519 172.074 39.335C172.074 41.149 173.555 42.63 175.371 42.63C177.185 42.63 178.667 41.15 178.667 39.335C178.667 37.519 177.186 36.038 175.371 36.038Z" fill="#069DE0"/>
<path d="M175.371 27.038C173.556 27.038 172.074 28.519 172.074 30.335C172.074 32.149 173.555 33.63 175.371 33.63C177.185 33.63 178.667 32.15 178.667 30.335C178.63 28.482 177.186 27.038 175.371 27.038Z" fill="#6E55DC"/>
<path d="M175.371 45.038C173.556 45.038 172.074 46.519 172.074 48.335C172.074 50.149 173.555 51.63 175.371 51.63C177.185 51.63 178.667 50.15 178.667 48.335C178.667 46.519 177.186 45.038 175.371 45.038Z" fill="#05AC3F"/>
<path d="M175.371 18C173.556 18 172.074 19.481 172.074 21.297C172.074 23.111 173.555 24.593 175.371 24.593C177.185 24.593 178.667 23.112 178.667 21.297C178.63 19.482 177.186 18 175.371 18Z" fill="#EF1541"/>
<path d="M175.371 9C173.556 9 172.074 10.481 172.074 12.297C172.074 14.111 173.555 15.593 175.371 15.593C177.185 15.593 178.667 14.112 178.667 12.297C178.63 10.482 177.186 9 175.371 9Z" fill="#FF7112"/>
<path d="M175.371 0C173.556 0 172.074 1.481 172.074 3.297C172.074 5.111 173.555 6.593 175.371 6.593C177.185 6.593 178.667 5.112 178.667 3.297C178.63 1.482 177.186 0 175.371 0Z" fill="#FCCC12"/>
</svg>
