<svg width="70" height="17" viewBox="0 0 70 17" fill="none" xmlns="http://www.w3.org/2000/svg">
<path d="M0.3125 0.75L0.682861 1.77979L2.625 2.16821V13.2068C1.92944 13.3513 1.30615 13.55 0.61963 13.6946L0.3125 14.625H8.64111L8.36109 13.6313C7.53003 13.4868 6.40088 13.3513 5.56983 13.2068V2.16821C6.25635 2.16821 7.81006 2.38501 8.36109 2.66504C9.19214 3.0896 9.5625 3.93872 9.5625 5.0769C9.5625 7.19971 8.11719 8.03979 6.41895 8.29272V9.27734C9.3728 9.27734 12.7964 7.34424 12.7964 3.93872C12.7964 3.36963 12.5254 2.09595 10.8633 1.39136C9.8877 0.966796 7.81006 0.75 5.85889 0.75H0.3125ZM14.1875 0.75L14.4946 1.68042C15.1812 1.82495 16.1567 2.02368 16.8433 2.16821V13.2068C16.1567 13.3513 15.1812 13.55 14.4946 13.6946L14.1875 14.625H22.5071L22.2361 13.6313C21.405 13.4868 20.574 13.3513 19.7339 13.2068V2.16821C20.574 2.02368 21.405 1.88819 22.2361 1.74365L22.5071 0.75H14.1875ZM24.4402 0.75L24.7383 1.68042C25.199 1.77075 25.8313 1.89722 26.4094 2.01465L26.3823 2.02368C26.3823 2.02368 30.1311 6.33252 30.8176 7.18164C29.9866 8.31983 26.7437 12.7822 25.9036 13.3513C25.8584 13.3965 25.8403 13.4326 25.7952 13.4688C25.3977 13.55 25.0002 13.6313 24.6841 13.6946L24.377 14.625H31.3145L31.0344 13.6313L28.5503 13.2158C29.3091 11.7434 31.1157 9.42188 31.7751 8.62695C32.3262 9.19605 36.5898 14.9141 38.252 16.0432H39.6431L33.2295 6.67578C33.2385 6.66675 36.5085 2.73731 37.2041 2.16821L37.2493 2.11401C37.9719 1.98755 38.7036 1.87012 39.4263 1.74365L39.7063 0.75H32.7688L33.0759 1.68042C33.5366 1.77979 34.187 1.89722 34.7742 2.01465C34.187 3.02637 32.7146 4.38135 32.0461 5.19434C31.5222 4.39941 30.1221 2.26758 29.9053 1.94238C30.3027 1.87915 30.7002 1.81592 31.0977 1.74365L31.3777 0.75H24.4402ZM43.3196 0.75L43.6267 1.68042C44.2139 1.79785 45.072 1.96045 45.7405 2.09595C44.9365 4.25488 42.4795 11.7434 41.7839 13.3152C41.1426 13.4416 40.3838 13.5862 39.8508 13.6946L39.5527 14.625H46.4902L46.2102 13.6313C45.614 13.532 44.4126 13.3242 44.4126 13.3242L45.7405 9.47608H49.417L50.9436 13.3242C50.9436 13.3242 49.7512 13.532 49.155 13.6313L48.875 14.625H55.8125L55.5144 13.6946C55.135 13.6223 54.6562 13.523 54.1865 13.4326C54.1685 13.4055 54.1685 13.3784 54.1504 13.3513C53.3103 11.6531 50.1396 3.08057 49.7151 1.93335C50.3745 1.87012 51.0068 1.80689 51.3682 1.74365L51.6482 0.75H43.3196ZM55.8125 14.625H63.6804L63.4004 13.6042C62.5603 13.4597 61.8467 13.3242 61.0156 13.1797V9.47608H62.2532C63.2649 10.9304 65.1528 12.7551 68.0254 14.905L69.6875 14.625C68.3145 13.1074 66.273 11.0569 64.8909 8.92505C66.273 8.59082 68.1428 7.48877 68.0977 5.00464C68.0706 3.67676 67.5828 0.75 60.9072 0.75H55.8125L56.1829 1.77979L58.125 2.16821V13.1797L56.1106 13.6946L55.8125 14.625ZM61.0156 2.16821C61.7112 2.16821 63.1023 2.38501 63.6533 2.66504C64.4934 3.0896 65.0444 3.93872 65.0444 5.0769C65.0444 6.25122 64.5386 6.89258 63.7979 7.39844C63.3372 7.5791 63.012 7.66944 62.5513 7.70557H61.0156V2.16821ZM47.5381 2.88184L48.9473 7.70557H46.3005L47.5381 2.88184Z" fill="white"/>
</svg>
