<svg fill="#FFFFFF" xmlns="http://www.w3.org/2000/svg"  viewBox="0 0 32 32" width="32px" height="32px"><path d="M 1 12 L 1.160156 12.445313 L 2 12.613281 L 2 17.386719 C 1.699219 17.449219 1.429688 17.535156 1.132813 17.597656 L 1 18 L 4.601563 18 L 4.480469 17.570313 C 4.121094 17.507813 3.632813 17.449219 3.273438 17.386719 L 3.273438 12.613281 C 3.570313 12.613281 4.242188 12.707031 4.480469 12.828125 C 4.839844 13.011719 5 13.378906 5 13.871094 C 5 14.789063 4.375 15.152344 3.640625 15.261719 L 3.640625 15.6875 C 4.917969 15.6875 6.398438 14.851563 6.398438 13.378906 C 6.398438 13.132813 6.28125 12.582031 5.5625 12.277344 C 5.140625 12.09375 4.242188 12 3.398438 12 Z M 7 12 L 7.132813 12.402344 C 7.429688 12.464844 7.851563 12.550781 8.148438 12.613281 L 8.148438 17.386719 C 7.851563 17.449219 7.429688 17.535156 7.132813 17.597656 L 7 18 L 10.597656 18 L 10.480469 17.570313 C 10.121094 17.507813 9.761719 17.449219 9.398438 17.386719 L 9.398438 12.613281 C 9.761719 12.550781 10.121094 12.492188 10.480469 12.429688 L 10.597656 12 Z M 11.433594 12 L 11.5625 12.402344 C 11.761719 12.441406 12.035156 12.496094 12.285156 12.546875 L 12.273438 12.550781 C 12.273438 12.550781 13.894531 14.414063 14.191406 14.78125 C 13.832031 15.273438 12.429688 17.203125 12.066406 17.449219 C 12.046875 17.46875 12.039063 17.484375 12.019531 17.5 C 11.847656 17.535156 11.675781 17.570313 11.539063 17.597656 L 11.40625 18 L 14.40625 18 L 14.285156 17.570313 L 13.210938 17.390625 C 13.539063 16.753906 14.320313 15.75 14.605469 15.40625 C 14.84375 15.652344 16.6875 18.125 17.40625 18.613281 L 18.007813 18.613281 L 15.234375 14.5625 C 15.238281 14.558594 16.652344 12.859375 16.953125 12.613281 L 16.972656 12.589844 C 17.285156 12.535156 17.601563 12.484375 17.914063 12.429688 L 18.035156 12 L 15.035156 12 L 15.167969 12.402344 C 15.367188 12.445313 15.648438 12.496094 15.902344 12.546875 C 15.648438 12.984375 15.011719 13.570313 14.722656 13.921875 C 14.496094 13.578125 13.890625 12.65625 13.796875 12.515625 C 13.96875 12.488281 14.140625 12.460938 14.3125 12.429688 L 14.433594 12 Z M 19.597656 12 L 19.730469 12.402344 C 19.984375 12.453125 20.355469 12.523438 20.644531 12.582031 C 20.296875 13.515625 19.234375 16.753906 18.933594 17.433594 C 18.65625 17.488281 18.328125 17.550781 18.097656 17.597656 L 17.96875 18 L 20.96875 18 L 20.847656 17.570313 C 20.589844 17.527344 20.070313 17.4375 20.070313 17.4375 L 20.644531 15.773438 L 22.234375 15.773438 L 22.894531 17.4375 C 22.894531 17.4375 22.378906 17.527344 22.121094 17.570313 L 22 18 L 25 18 L 24.871094 17.597656 C 24.707031 17.566406 24.5 17.523438 24.296875 17.484375 C 24.289063 17.472656 24.289063 17.460938 24.28125 17.449219 C 23.917969 16.714844 22.546875 13.007813 22.363281 12.511719 C 22.648438 12.484375 22.921875 12.457031 23.078125 12.429688 L 23.199219 12 Z M 25 18 L 28.402344 18 L 28.28125 17.558594 C 27.917969 17.496094 27.609375 17.4375 27.25 17.375 L 27.25 15.773438 L 27.785156 15.773438 C 28.222656 16.402344 29.039063 17.191406 30.28125 18.121094 L 31 18 C 30.40625 17.34375 29.523438 16.457031 28.925781 15.535156 C 29.523438 15.390625 30.332031 14.914063 30.3125 13.839844 C 30.300781 13.265625 30.089844 12 27.203125 12 L 25 12 L 25.160156 12.445313 L 26 12.613281 L 26 17.375 L 25.128906 17.597656 Z M 27.25 12.613281 C 27.550781 12.613281 28.152344 12.707031 28.390625 12.828125 C 28.753906 13.011719 28.992188 13.378906 28.992188 13.871094 C 28.992188 14.378906 28.773438 14.65625 28.453125 14.875 C 28.253906 14.953125 28.113281 14.992188 27.914063 15.007813 L 27.25 15.007813 Z M 21.421875 12.921875 L 22.03125 15.007813 L 20.886719 15.007813 Z"/></svg>