<svg fill="#FFFFFF" xmlns="http://www.w3.org/2000/svg"  viewBox="0 0 32 32" width="32px" height="32px"><path d="M 6.445313 9 C 5.652344 9 5.042969 9.597656 5.042969 10.4375 C 5.042969 10.800781 5.164063 10.917969 5.226563 11.039063 C 5.394531 11.34375 6.171875 12.597656 6.171875 12.597656 C 6.214844 12.660156 6.222656 12.699219 6.234375 12.78125 C 6.296875 13.019531 6.113281 13.199219 5.867188 13.199219 L 2 13.199219 L 2 15 L 7.355469 15 C 8.144531 15 8.816406 14.402344 8.816406 13.5625 C 8.816406 13.199219 8.695313 13.082031 8.632813 12.960938 L 7.617188 11.402344 C 7.585938 11.355469 7.558594 11.28125 7.558594 11.21875 C 7.558594 10.980469 7.742188 10.800781 7.984375 10.800781 L 11 10.800781 L 11 15 L 13 15 L 13 10.800781 L 15 10.800781 L 15 9 Z M 16.636719 9 L 14.675781 15 L 16.636719 15 L 16.992188 14 L 19.050781 14 L 19.40625 15 L 21.324219 15 L 19.296875 9 Z M 22.089844 9 L 22.089844 15 L 23.910156 15 L 23.910156 13.132813 C 24.3125 13.507813 25.265625 14.398438 25.738281 14.820313 C 25.800781 14.878906 25.980469 15 26.222656 15 L 30 15 L 30 13.199219 L 27.324219 13.199219 C 27.183594 13.199219 27.085938 13.160156 27.003906 13.105469 C 26.964844 13.066406 26.9375 13.042969 26.90625 13.015625 C 27.648438 12.6875 28 11.953125 28 11.097656 C 28 9.945313 27.039063 9 25.871094 9 Z M 23.910156 10.800781 L 25.5625 10.800781 C 25.734375 10.800781 25.871094 10.933594 25.871094 11.097656 C 25.871094 11.265625 25.734375 11.402344 25.5625 11.402344 L 23.910156 11.402344 Z M 18.015625 11.039063 L 18.472656 12.199219 L 17.625 12.199219 Z M 2 17 L 4.03125 23 L 5.273438 23 L 6 20.605469 L 6.726563 23 L 7.96875 23 L 10 17 L 8.070313 17 L 7.359375 19.273438 L 6.59375 17 L 5.40625 17 L 4.640625 19.273438 L 3.929688 17 Z M 12.3125 17 L 10.351563 23 L 12.3125 23 L 12.667969 22 L 14.726563 22 L 15.082031 23 L 17 23 L 14.96875 17 Z M 18 17 L 18 23 L 19.828125 23 L 19.828125 21.128906 C 20.226563 21.503906 21.003906 22.398438 21.480469 22.820313 C 21.539063 22.878906 21.722656 23 21.964844 23 L 27.539063 23 C 28.328125 23 29 22.460938 29 21.5625 C 29 21.199219 28.878906 21.082031 28.816406 20.960938 L 27.890625 19.460938 C 27.867188 19.421875 27.828125 19.339844 27.828125 19.28125 C 27.828125 19.039063 28.007813 18.800781 28.191406 18.800781 L 30 18.800781 L 30 17 L 26.53125 17 C 25.738281 17 25.070313 17.660156 25.070313 18.5 C 25.070313 18.859375 25.191406 18.980469 25.253906 19.097656 C 25.425781 19.328125 26.261719 20.597656 26.261719 20.597656 C 26.289063 20.660156 26.324219 20.71875 26.324219 20.78125 C 26.324219 21.019531 26.140625 21.199219 25.957031 21.199219 L 23.0625 21.199219 C 22.957031 21.199219 22.875 21.175781 22.808594 21.140625 C 22.753906 21.082031 22.710938 21.039063 22.671875 21 C 23.402344 20.664063 24 19.941406 24 19.097656 C 24 17.945313 23.039063 17 21.871094 17 Z M 19.828125 18.800781 L 21.5625 18.800781 C 21.734375 18.800781 21.871094 18.933594 21.871094 19.097656 C 21.871094 19.265625 21.734375 19.402344 21.5625 19.402344 L 19.828125 19.402344 Z M 13.691406 19.039063 L 14.148438 20.199219 L 13.300781 20.199219 Z"/></svg>