<svg width="55" height="27" viewBox="0 0 55 27" fill="none" xmlns="http://www.w3.org/2000/svg">
<path d="M9.28638 0.15625C7.77478 0.15625 6.61316 1.29553 6.61316 2.89648C6.61316 3.58899 6.844 3.81238 6.96314 4.04321C7.28332 4.62402 8.76514 7.01428 8.76514 7.01428C8.84705 7.13342 8.86194 7.20789 8.88428 7.36426C9.00342 7.81848 8.65344 8.16101 8.18433 8.16101H0.8125V11.5938H11.0214C12.5255 11.5938 13.8063 10.4545 13.8063 8.85352C13.8063 8.16101 13.5754 7.93762 13.4563 7.70679L11.5203 4.73572C11.4607 4.64636 11.4086 4.50488 11.4086 4.38574C11.4086 3.93152 11.7585 3.58899 12.2202 3.58899H17.9688V11.5938H21.7812V3.58899H25.5938V0.15625H9.28638ZM28.7137 0.15625L24.9757 11.5938H28.7137L29.3914 9.6875H33.3156L33.9932 11.5938H37.6493L33.7847 0.15625H28.7137ZM39.1088 0.15625V11.5938H42.5787V8.03443C43.3457 8.74927 45.1626 10.447 46.0636 11.2512C46.1827 11.3629 46.5253 11.5938 46.9869 11.5938H54.1875V8.16101H49.0868C48.8187 8.16101 48.6326 8.08655 48.4762 7.9823C48.4017 7.90784 48.3496 7.86316 48.29 7.81104C49.7048 7.18555 50.375 5.78564 50.375 4.15491C50.375 1.95825 48.5432 0.15625 46.3168 0.15625H39.1088ZM42.5787 3.58899H45.7285C46.0562 3.58899 46.3168 3.84216 46.3168 4.15491C46.3168 4.4751 46.0562 4.73572 45.7285 4.73572H42.5787V3.58899ZM31.3423 4.04321L32.2135 6.25476H30.5977L31.3423 4.04321ZM0.8125 15.4062L4.68457 26.8438H7.05249L8.4375 22.2792L9.82251 26.8438H12.1904L16.0625 15.4062H12.384L11.0288 19.74L9.56934 15.4062H7.30566L5.84619 19.74L4.49097 15.4062H0.8125ZM20.4707 15.4062L16.7327 26.8438H20.4707L21.1483 24.9375H25.0725L25.7501 26.8438H29.4062L25.5342 15.4062H20.4707ZM31.3125 15.4062V26.8438H34.7974V23.277C35.5569 23.9918 37.0387 25.697 37.9471 26.5012C38.0588 26.6129 38.4088 26.8438 38.8705 26.8438H49.4963C51.0005 26.8438 52.2812 25.8162 52.2812 24.1035C52.2812 23.411 52.0504 23.1876 51.9313 22.9568L50.1665 20.0974C50.1218 20.0229 50.0474 19.8666 50.0474 19.7549C50.0474 19.2932 50.3899 18.839 50.7399 18.839H54.1875V15.4062H47.5752C46.0636 15.4062 44.7903 16.6647 44.7903 18.2656C44.7903 18.9507 45.0211 19.1815 45.1403 19.4049C45.4679 19.8442 47.0614 22.2643 47.0614 22.2643C47.1135 22.3834 47.1805 22.4951 47.1805 22.6143C47.1805 23.0685 46.8306 23.411 46.4806 23.411H40.9629C40.7618 23.411 40.6055 23.3663 40.4789 23.2993C40.3746 23.1876 40.2927 23.1057 40.2183 23.0312C41.6107 22.3909 42.75 21.0133 42.75 19.4049C42.75 17.2083 40.9182 15.4062 38.6918 15.4062H31.3125ZM34.7974 18.839H38.1035C38.4312 18.839 38.6918 19.0922 38.6918 19.4049C38.6918 19.7251 38.4312 19.9857 38.1035 19.9857H34.7974V18.839ZM23.0992 19.2932L23.9705 21.5048H22.3546L23.0992 19.2932Z" fill="white"/>
</svg>
